<?xml version="1.0" encoding="UTF-8" standalone="no"?>
<!-- Created with Inkscape (http://www.inkscape.org/) -->

<svg
   xmlns:dc="http://purl.org/dc/elements/1.1/"
   xmlns:cc="http://creativecommons.org/ns#"
   xmlns:rdf="http://www.w3.org/1999/02/22-rdf-syntax-ns#"
   xmlns:svg="http://www.w3.org/2000/svg"
   xmlns="http://www.w3.org/2000/svg"
   xmlns:sodipodi="http://sodipodi.sourceforge.net/DTD/sodipodi-0.dtd"
   xmlns:inkscape="http://www.inkscape.org/namespaces/inkscape"
   width="210mm"
   height="297mm"
   viewBox="0 0 210 297"
   version="1.1"
   id="svg8"
   sodipodi:docname="New document 1.2018_10_01_21_57_03.0.svg"
   inkscape:version="0.92.3 (unknown)"
   inkscape:export-filename="/home/furkon/New document 1.2018_10_01_21_57_03.0.svg.png"
   inkscape:export-xdpi="96"
   inkscape:export-ydpi="96">
  <defs
     id="defs2" />
  <sodipodi:namedview
     id="base"
     pagecolor="#ffffff"
     bordercolor="#666666"
     borderopacity="1.0"
     inkscape:pageopacity="0.0"
     inkscape:pageshadow="2"
     inkscape:zoom="0.49497475"
     inkscape:cx="333.58732"
     inkscape:cy="643.95017"
     inkscape:document-units="mm"
     inkscape:current-layer="layer1"
     showgrid="false"
     showguides="true"
     inkscape:guide-bbox="true"
     inkscape:window-width="1321"
     inkscape:window-height="744"
     inkscape:window-x="45"
     inkscape:window-y="24"
     inkscape:window-maximized="1" />
  <metadata
     id="metadata5">
    <rdf:RDF>
      <cc:Work
         rdf:about="">
        <dc:format>image/svg+xml</dc:format>
        <dc:type
           rdf:resource="http://purl.org/dc/dcmitype/StillImage" />
      </cc:Work>
    </rdf:RDF>
  </metadata>
  <g
     inkscape:label="Layer 1"
     inkscape:groupmode="layer"
     id="layer1">
    <path
       style="opacity:1;fill:#000000;stroke:none;stroke-width:0.26458332px;stroke-linecap:butt;stroke-linejoin:miter;stroke-opacity:1"
       d="m 23.668791,120.81497 30.586923,-13.89706 v 26.19242 z"
       id="path1001"
       inkscape:connector-curvature="0" />
    <path
       style="opacity:1;fill:#000000;stroke:none;stroke-width:0.26458332px;stroke-linecap:butt;stroke-linejoin:miter;stroke-opacity:1"
       d="m 185.49726,151.1294 -28.71696,14.53436 4.49013,-26.19242 z"
       id="path1003"
       inkscape:connector-curvature="0" />
    <path
       style="color:#000000;font-style:normal;font-variant:normal;font-weight:normal;font-stretch:normal;font-size:medium;line-height:normal;font-family:sans-serif;font-variant-ligatures:normal;font-variant-position:normal;font-variant-caps:normal;font-variant-numeric:normal;font-variant-alternates:normal;font-feature-settings:normal;text-indent:0;text-align:start;text-decoration:none;text-decoration-line:none;text-decoration-style:solid;text-decoration-color:#000000;letter-spacing:normal;word-spacing:normal;text-transform:none;writing-mode:lr-tb;direction:ltr;text-orientation:mixed;dominant-baseline:auto;baseline-shift:baseline;text-anchor:start;white-space:normal;shape-padding:0;clip-rule:nonzero;display:inline;overflow:visible;visibility:visible;opacity:1;isolation:auto;mix-blend-mode:normal;color-interpolation:sRGB;color-interpolation-filters:linearRGB;solid-color:#000000;solid-opacity:1;vector-effect:none;fill:#000000;fill-opacity:1;fill-rule:nonzero;stroke:none;stroke-width:37.79527664;stroke-linecap:butt;stroke-linejoin:miter;stroke-miterlimit:4;stroke-dasharray:none;stroke-dashoffset:0;stroke-opacity:1;color-rendering:auto;image-rendering:auto;shape-rendering:auto;text-rendering:auto;enable-background:accumulate"
       d="M 401.76758 190.86719 L 392.31836 196.32227 L 382.86914 201.77734 L 294.33984 252.89648 L 294.33594 252.89258 L 286.03516 257.68555 L 286.00391 257.68555 L 282.55664 259.69336 L 165.64062 327.19531 L 165.64062 544.51953 C 165.57766 545.64092 165.51375 546.78796 165.46484 548.02148 L 165.46289 548.05273 L 165.43555 548.80273 L 165.43555 549.52148 C 165.43496 679.63833 271.64859 785.85412 401.76562 785.85352 C 531.88176 785.85284 638.09822 679.63788 638.09766 549.52148 L 638.09766 549.0332 L 638.08594 548.74219 L 638.07812 548.55273 C 638.03844 546.71959 637.96502 544.96736 637.88867 543.26562 L 637.88867 327.19531 L 520.77734 259.57812 L 520.76953 259.58594 C 518.36715 258.14532 515.94069 256.73642 513.47852 255.37695 L 513.48242 255.36914 L 401.76758 190.86719 z "
       id="path975"
       transform="scale(0.26458333)" />
    <path
       style="color:#000000;font-style:normal;font-variant:normal;font-weight:normal;font-stretch:normal;font-size:medium;line-height:normal;font-family:sans-serif;font-variant-ligatures:normal;font-variant-position:normal;font-variant-caps:normal;font-variant-numeric:normal;font-variant-alternates:normal;font-feature-settings:normal;text-indent:0;text-align:start;text-decoration:none;text-decoration-line:none;text-decoration-style:solid;text-decoration-color:#000000;letter-spacing:normal;word-spacing:normal;text-transform:none;writing-mode:lr-tb;direction:ltr;text-orientation:mixed;dominant-baseline:auto;baseline-shift:baseline;text-anchor:start;white-space:normal;shape-padding:0;clip-rule:nonzero;display:inline;overflow:visible;visibility:visible;opacity:1;isolation:auto;mix-blend-mode:normal;color-interpolation:sRGB;color-interpolation-filters:linearRGB;solid-color:#000000;solid-opacity:1;vector-effect:none;fill:#ffffff;fill-opacity:1;fill-rule:nonzero;stroke:none;stroke-width:37.79527664;stroke-linecap:butt;stroke-linejoin:miter;stroke-miterlimit:4;stroke-dasharray:none;stroke-dashoffset:0;stroke-opacity:1;color-rendering:auto;image-rendering:auto;shape-rendering:auto;text-rendering:auto;enable-background:accumulate"
       d="M 401.76758 212.6875 L 392.31836 218.14258 L 291.11133 276.58398 L 291.10547 276.58398 L 290.77344 276.77734 L 290.78711 276.80664 C 289.89934 277.31135 289.0095 277.80899 288.12891 278.32617 L 288.11523 278.30469 L 184.53906 338.10547 L 184.53906 544.97461 C 184.46676 546.23977 184.39785 547.50339 184.34766 548.76953 L 184.33398 549.14648 L 184.33398 549.52148 C 184.33344 669.38274 281.90437 766.95565 401.76562 766.95508 C 521.62605 766.95444 619.19975 669.38191 619.19922 549.52148 L 619.19922 549.32227 L 619.19336 549.13086 C 619.15519 547.26438 619.08031 545.39824 618.99414 543.53516 L 618.99414 338.10547 L 511.32812 275.94336 L 511.64648 276.13477 C 509.19436 274.65411 506.71363 273.22043 504.20508 271.83789 L 503.87305 271.6543 L 504.03516 271.73438 L 401.76758 212.6875 z "
       id="path958"
       transform="scale(0.26458333)" />
    <path
       sodipodi:nodetypes="ccccccccsccccccc"
       inkscape:connector-curvature="0"
       id="path946"
       d="M 106.30102,62.047897 79.433911,77.55962 c 0.117403,-0.0647 0.235054,-0.12895 0.352949,-0.19275 -0.376068,0.209684 -0.749544,0.423983 -1.120343,0.64285 l 0.06459,-0.0444 -24.90442,14.37845 v 51.95601 c -0.02206,0.36446 -0.04032,0.72915 -0.05478,1.09399 -1.31e-4,29.01107 23.518027,52.52923 52.529103,52.52909 29.01087,-1.5e-4 52.52871,-23.51822 52.52858,-52.52909 -0.0106,-0.51718 -0.0289,-1.03417 -0.0548,-1.55081 V 92.34377 L 132.78878,77.34056 c -0.59238,-0.357698 -1.19178,-0.703656 -1.79783,-1.03767 l -0.002,-0.001 z"
       style="opacity:1;fill:#000000;fill-opacity:1;stroke:#ff0000;stroke-width:0;stroke-linejoin:miter;stroke-miterlimit:4;stroke-dasharray:none" />
    <path
       style="color:#000000;font-style:normal;font-variant:normal;font-weight:normal;font-stretch:normal;font-size:medium;line-height:normal;font-family:sans-serif;font-variant-ligatures:normal;font-variant-position:normal;font-variant-caps:normal;font-variant-numeric:normal;font-variant-alternates:normal;font-feature-settings:normal;text-indent:0;text-align:start;text-decoration:none;text-decoration-line:none;text-decoration-style:solid;text-decoration-color:#000000;letter-spacing:normal;word-spacing:normal;text-transform:none;writing-mode:lr-tb;direction:ltr;text-orientation:mixed;dominant-baseline:auto;baseline-shift:baseline;text-anchor:start;white-space:normal;shape-padding:0;clip-rule:nonzero;display:inline;overflow:visible;visibility:visible;opacity:1;isolation:auto;mix-blend-mode:normal;color-interpolation:sRGB;color-interpolation-filters:linearRGB;solid-color:#000000;solid-opacity:1;vector-effect:none;fill:#000000;fill-opacity:1;fill-rule:nonzero;stroke:none;stroke-width:9.33528805;stroke-linecap:butt;stroke-linejoin:miter;stroke-miterlimit:4;stroke-dasharray:none;stroke-dashoffset:0;stroke-opacity:1;color-rendering:auto;image-rendering:auto;shape-rendering:auto;text-rendering:auto;enable-background:accumulate"
       d="m 23.668791,120.81497 v 4.66713 53.16396 L 185.49726,151.1294 V 93.298304 Z"
       id="path992"
       inkscape:connector-curvature="0" />
    <circle
       style="opacity:1;fill:#ffffff;fill-opacity:1;stroke:none;stroke-width:1;stroke-linejoin:miter;stroke-miterlimit:4;stroke-dasharray:none"
       id="path944"
       cx="106.30075"
       cy="100.82417"
       r="29.399649" />
    <rect
       style="opacity:1;fill:#ffffff;fill-opacity:1;stroke:none;stroke-width:9.4020443;stroke-linejoin:miter;stroke-miterlimit:4;stroke-dasharray:none"
       id="rect982"
       width="154.68181"
       height="48.495846"
       x="28.743803"
       y="129.50717"
       transform="matrix(0.98584998,-0.16762999,0,1,0,0)" />
    <text
       xml:space="preserve"
       style="font-style:normal;font-variant:normal;font-weight:bold;font-stretch:normal;font-size:33.19440842px;line-height:1.25;font-family:'Bitstream Charter';-inkscape-font-specification:'Bitstream Charter, Bold';font-variant-ligatures:normal;font-variant-caps:normal;font-variant-numeric:normal;font-feature-settings:normal;text-align:start;letter-spacing:0px;word-spacing:0px;writing-mode:lr-tb;text-anchor:start;fill:#000000;fill-opacity:1;stroke:none;stroke-width:0.82984769;opacity:1;"
       x="54.326908"
       y="107.96291"
       id="text980"
       transform="matrix(0.62985087,-0.10709733,0,1.5876774,0,0)"><tspan
         sodipodi:role="line"
         id="tspan978"
         x="54.326908"
         y="107.96291"
         style="font-style:normal;font-variant:normal;font-weight:bold;font-stretch:normal;font-size:33.19440842px;font-family:'Bitstream Charter';-inkscape-font-specification:'Bitstream Charter, Bold';font-variant-ligatures:normal;font-variant-caps:normal;font-variant-numeric:normal;font-feature-settings:normal;text-align:start;writing-mode:lr-tb;text-anchor:start;stroke-width:0.82984769;">LOGO DESIGN</tspan></text>
    <g
       aria-label="WITH INKSCAPE"
       style="font-style:normal;font-weight:normal;font-size:10.58333302px;line-height:1.25;font-family:sans-serif;letter-spacing:0px;word-spacing:0px;fill:#ffffff;fill-opacity:1;stroke:none;stroke-width:0.26458332;opacity:1"
       id="text833">
      <path
         d="m 78.666675,183.31761 0.747537,0.46147 -1.704128,5.33476 4.001705,-3.91644 0.831818,0.5135 -1.704128,5.33476 4.001704,-3.91644 0.751201,0.46373 -4.751438,4.62266 -0.930757,-0.57457 1.777375,-5.46161 -4.096937,4.02971 -0.930757,-0.57456 z"
         style="font-size:8.81944466px;fill:#ffffff"
         id="path842" />
      <path
         d="m 86.091359,187.64347 0.784982,0.37484 -2.770483,5.80187 -0.784982,-0.37484 z"
         style="font-size:8.81944466px;fill:#ffffff"
         id="path844" />
      <path
         d="m 87.162035,188.23698 5.072994,1.96135 -0.263997,0.68282 -2.12881,-0.82305 -2.054516,5.31399 -0.815374,-0.31524 2.054516,-5.31399 -2.128809,-0.82305 z"
         style="font-size:8.81944466px;fill:#ffffff"
         id="path846" />
      <path
         d="m 92.343024,190.21681 0.842059,0.21827 -0.66128,2.55119 3.059758,0.7931 0.66128,-2.55119 0.842059,0.21827 -1.61322,6.22373 -0.842059,-0.21827 0.768252,-2.96388 -3.059758,-0.7931 -0.768252,2.96388 -0.842058,-0.21827 z"
         style="font-size:8.81944466px;fill:#ffffff"
         id="path848" />
      <path
         d="m 100.68075,191.96436 0.86447,0.0969 -0.71661,6.38935 -0.864465,-0.0969 z"
         style="font-size:8.81944466px;fill:#ffffff"
         id="path850" />
      <path
         d="m 102.70691,192.22774 1.17098,0.0284 2.71969,5.44613 0.13029,-5.37707 0.8438,0.0204 -0.15574,6.42753 -1.17099,-0.0284 -2.71969,-5.44613 -0.13029,5.37708 -0.8438,-0.0205 z"
         style="font-size:8.81944466px;fill:#ffffff"
         id="path852" />
      <path
         d="m 108.55132,192.28779 0.86611,-0.0809 0.25277,2.70554 2.61999,-2.97393 1.1148,-0.10415 -2.89838,3.28107 3.72369,3.09924 -1.14053,0.10655 -3.36229,-2.79564 0.28801,3.08285 -0.86611,0.0809 z"
         style="font-size:8.81944466px;fill:#ffffff"
         id="path854" />
      <path
         d="m 117.43902,191.19049 0.16928,0.8313 q -0.53254,-0.13328 -0.98615,-0.15956 -0.45362,-0.0263 -0.8545,0.0553 -0.69626,0.14178 -1.02105,0.48918 -0.32056,0.34654 -0.21917,0.84447 0.0851,0.41776 0.37786,0.58227 0.29615,0.15943 1.02327,0.14761 l 0.53629,6.6e-4 q 0.99062,-0.0128 1.53579,0.35527 0.54854,0.36293 0.70493,1.13093 0.18646,0.91569 -0.33339,1.51376 -0.51563,0.59721 -1.70138,0.83866 -0.4473,0.0911 -0.97429,0.0929 -0.52278,9.8e-4 -1.10329,-0.0874 l -0.17873,-0.87771 q 0.57832,0.18547 1.10633,0.23177 0.528,0.0463 1.00906,-0.0517 0.73002,-0.14865 1.06825,-0.51637 0.33822,-0.36772 0.22996,-0.89941 -0.0945,-0.46417 -0.43474,-0.66737 -0.336,-0.20405 -1.01248,-0.20254 l -0.53966,0.004 q -0.99233,0.004 -1.50102,-0.31401 -0.50869,-0.31831 -0.65562,-1.03989 -0.17014,-0.83552 0.31845,-1.43601 0.49281,-0.60135 1.52666,-0.81187 0.44307,-0.0902 0.91935,-0.10371 0.47629,-0.0135 0.98999,0.0489 z"
         style="font-size:8.81944466px;fill:#ffffff"
         id="path856" />
      <path
         d="m 123.13231,189.73001 0.28187,0.87287 q -0.54372,-0.25432 -1.08128,-0.29342 -0.53347,-0.0404 -1.06621,0.13161 -1.04908,0.33878 -1.39865,1.16214 -0.35088,0.81926 0.0408,2.03227 0.39039,1.20891 1.15548,1.67232 0.76377,0.45931 1.81286,0.12053 0.53274,-0.17203 0.94181,-0.51682 0.41317,-0.34612 0.70545,-0.87041 l 0.27922,0.86468 q -0.3391,0.43533 -0.77912,0.74034 -0.43593,0.30368 -0.97686,0.47836 -1.38922,0.44861 -2.46227,-0.14162 -1.07436,-0.59433 -1.54944,-2.06551 -0.47641,-1.47528 0.0488,-2.58161 0.52385,-1.11044 1.91307,-1.55906 0.54913,-0.17732 1.08034,-0.18595 0.53398,-0.014 1.05413,0.13928 z"
         style="font-size:8.81944466px;fill:#ffffff"
         id="path858" />
      <path
         d="m 125.85149,188.9006 0.25572,3.40067 2.15059,-0.98204 z m -0.80254,-0.57561 0.89706,-0.40963 4.89957,4.83069 -0.82263,0.37564 -1.21785,-1.25705 -2.63633,1.20385 0.15235,1.74359 -0.83438,0.38101 z"
         style="font-size:8.81944466px;fill:#ffffff"
         id="path860" />
      <path
         d="m 129.47323,186.89992 1.23555,2.07602 0.93995,-0.55941 q 0.52178,-0.31054 0.64595,-0.75026 0.12417,-0.43973 -0.17316,-0.93931 -0.29512,-0.49587 -0.74084,-0.59643 -0.44572,-0.10056 -0.9675,0.20998 z m -1.11311,-0.16941 1.68746,-1.00429 q 0.92884,-0.55281 1.65359,-0.41285 0.72625,0.13405 1.20857,0.94448 0.48673,0.81783 0.25823,1.5201 -0.2248,0.70007 -1.15364,1.25288 l -0.93995,0.55941 1.32145,2.22034 -0.74752,0.44489 z"
         style="font-size:8.81944466px;fill:#ffffff"
         id="path862" />
      <path
         d="m 132.33307,184.30943 3.25731,-2.43226 0.43801,0.58659 -2.5603,1.9118 1.13883,1.52514 2.45334,-1.83193 0.43801,0.5866 -2.45333,1.83192 1.39391,1.86674 2.62241,-1.95817 0.43801,0.58659 -3.31941,2.47864 z"
         style="font-size:8.81944466px;fill:#ffffff"
         id="path864" />
    </g>
    <path
       sodipodi:type="star"
       style="opacity:1;fill:#ffffff;fill-opacity:1;stroke:none;stroke-width:1;stroke-linejoin:miter;stroke-miterlimit:4;stroke-dasharray:none"
       id="path867"
       sodipodi:sides="5"
       sodipodi:cx="106.34557"
       sodipodi:cy="175.12263"
       sodipodi:r1="7.4990163"
       sodipodi:r2="3.7495086"
       sodipodi:arg1="0.92313435"
       sodipodi:arg2="1.5514529"
       inkscape:flatsided="false"
       inkscape:rounded="0"
       inkscape:randomized="0"
       d="m 110.86991,181.10307 -4.45181,-2.23163 -4.36217,2.40215 0.74673,-4.92354 -3.632563,-3.40636 4.913313,-0.81128 2.11712,-4.50739 2.28986,4.42214 4.94102,0.62064 -3.4981,3.54431 z"
       inkscape:transform-center-x="0.044828692"
       inkscape:transform-center-y="-0.67333159" />
    <path
       style="fill:#000000;stroke-width:0.99999994"
       d="m 124.33105,114.45624 c -0.0704,-0.0594 -0.2358,-0.0631 -0.56714,-0.0126 -0.2573,0.0389 -0.52033,0.0698 -0.5846,0.068 -0.0642,-0.002 -0.11128,0.0306 -0.10446,0.072 0.009,0.0565 -0.30645,0.1123 -1.2729,0.22465 -0.95972,0.11165 -1.28853,0.16944 -1.29803,0.22833 -0.0162,0.10063 -1.29211,0.31885 -1.30764,0.22363 -0.006,-0.0389 -0.26959,-0.0225 -0.65814,0.0409 -0.38854,0.0634 -0.64334,0.13158 -0.63701,0.17037 0.006,0.0389 -0.24847,0.10699 -0.637,0.17037 -0.38855,0.0634 -0.65181,0.0797 -0.65813,0.0409 -0.006,-0.0389 -0.26959,-0.0225 -0.65814,0.0409 -0.38854,0.0634 -0.64334,0.13158 -0.63701,0.17037 0.006,0.0389 -0.24846,0.10699 -0.637,0.17037 -0.38855,0.0634 -0.65181,0.0797 -0.65813,0.0409 -0.006,-0.0389 -0.26959,-0.0225 -0.65814,0.0409 -0.35616,0.0581 -0.64393,0.12793 -0.6395,0.15507 0.013,0.0799 -0.8062,0.22725 -1.18312,0.21284 -0.47983,-0.0184 -1.42343,0.1101 -1.4099,0.19197 0.007,0.0409 -0.232,0.0971 -0.64024,0.15053 -0.35808,0.0469 -0.65549,0.058 -0.66091,0.0247 -0.005,-0.0335 -0.29961,-0.0132 -0.65744,0.0451 -0.38855,0.0634 -0.64336,0.13148 -0.63702,0.17037 0.006,0.0389 -0.24846,0.10699 -0.637,0.17037 -0.38854,0.0634 -0.6518,0.0798 -0.65814,0.0409 -0.006,-0.0389 -0.26959,-0.0225 -0.65813,0.0409 -0.38854,0.0634 -0.64335,0.13148 -0.63701,0.17037 0.0142,0.0872 -1.26307,0.29467 -1.30631,0.21234 -0.0476,-0.0908 -1.30632,0.0731 -1.29077,0.16819 0.0148,0.0906 -1.24054,0.26668 -1.28906,0.18077 -0.0405,-0.0717 -1.318472,0.13613 -1.306047,0.2123 0.01211,0.0742 -1.253872,0.21364 -1.295198,0.14297 -0.04024,-0.069 -1.317941,0.13938 -1.305922,0.21307 0.0051,0.031 -0.27759,0.0864 -0.628102,0.12312 -0.350503,0.0367 -0.753532,0.0877 -0.895587,0.11345 -2.866143,0.51857 -4.484551,0.72337 -4.953833,0.6277 -0.212215,-0.0434 -0.634612,-0.58637 -0.828589,-1.06515 -0.187148,-0.4619 -0.450639,-1.44228 -0.768951,-2.86107 -0.156233,-0.69632 -0.269444,-1.06614 -0.378095,-1.23469 -0.131437,-0.20389 -0.193352,-0.46781 -0.405804,-1.72877 -0.138551,-0.81837 -0.477988,-2.72547 -0.755764,-4.23777 -0.339418,-1.84797 -0.485686,-2.76645 -0.445921,-2.80095 0.123916,-0.10765 0.315117,0.1695 0.551853,0.79993 0.15496,0.41271 0.373326,0.84088 0.591875,1.16066 l 0.346298,0.50671 0.139248,-0.549 c 0.07657,-0.30194 0.179831,-0.60214 0.229451,-0.66709 0.0829,-0.10857 0.08989,-0.1014 0.08593,0.0877 -0.0037,0.17989 0.04711,0.24536 0.402024,0.52086 0.389298,0.3019 0.440132,0.32023 1.214349,0.43794 0.444424,0.0676 1.309685,0.22221 1.922793,0.34367 0.613107,0.12144 1.195346,0.21639 1.29386,0.21098 0.153684,-0.008 0.216678,-0.082 0.443663,-0.51834 0.145494,-0.27968 0.408738,-0.69338 0.58499,-0.91935 0.176251,-0.22597 0.268662,-0.37117 0.205374,-0.32267 -0.07161,0.0548 -0.175654,0.0758 -0.275236,0.0554 -0.08804,-0.018 -0.22696,-0.0344 -0.308604,-0.0364 -0.236288,-0.006 -1.222833,-0.16874 -1.415827,-0.2337 -0.308778,-0.10393 -1.046131,-0.19242 -1.559575,-0.18718 -0.273769,0.003 -0.669218,-0.0373 -0.87876,-0.089 -0.209533,-0.0517 -0.480496,-0.11647 -0.602127,-0.14383 -0.180972,-0.0407 -0.222589,-0.0813 -0.229087,-0.22343 -0.0044,-0.0955 0.0097,-0.21642 0.03126,-0.26864 0.02157,-0.0523 -0.135911,0.0421 -0.349953,0.20978 l -0.389182,0.30472 -0.21236,-0.20083 c -0.252696,-0.23897 -0.376155,-0.5172 -0.464771,-1.04738 -0.0518,-0.31137 -0.04117,-0.43941 0.05306,-0.62306 0.118405,-0.23084 0.118706,-0.23098 0.212292,-0.0974 0.08295,0.11844 0.09194,0.11953 0.07797,0.01 -0.01436,-0.11287 -0.004,-0.11675 0.113841,-0.0429 0.114746,0.0719 0.186912,0.0612 0.630637,-0.0927 0.299345,-0.10405 0.724343,-0.19738 1.055856,-0.2318 1.108903,-0.11542 1.450668,-0.18028 1.494794,-0.28384 0.02307,-0.0542 0.02049,-0.23344 -0.0059,-0.39833 -0.05217,-0.32608 0.03631,-0.51618 0.188939,-0.40635 0.06796,0.0489 0.0832,0.0305 0.06538,-0.0787 -0.01767,-0.10831 0.01506,-0.14871 0.13662,-0.16854 0.115494,-0.0188 0.145119,-0.0513 0.106749,-0.11711 -0.03189,-0.0545 -0.01633,-0.097 0.03854,-0.10599 0.05043,-0.008 0.141,-0.0687 0.201266,-0.13435 0.105638,-0.11511 0.105264,-0.11809 -0.01024,-0.0814 -0.103354,0.0328 -0.127718,-0.007 -0.180486,-0.2952 -0.03393,-0.18315 -0.07797,-0.3184 -0.09855,-0.30045 -0.02068,0.018 -0.06218,-0.0228 -0.09229,-0.0906 -0.03011,-0.0678 -0.09059,-0.11743 -0.134446,-0.11028 -0.05951,0.01 -0.05103,0.1195 0.03374,0.43299 0.08877,0.32868 0.09434,0.41685 0.02552,0.40554 -0.09536,-0.0156 -0.191417,-0.45837 -0.166658,-0.76768 0.0096,-0.12011 -0.02043,-0.20229 -0.08857,-0.24235 -0.132037,-0.0776 -0.174842,0.0835 -0.09175,0.34531 0.04291,0.13512 0.03396,0.17717 -0.03617,0.16277 -0.0517,-0.0107 -0.09931,-0.0821 -0.105724,-0.15868 -0.0064,-0.0766 -0.02084,-0.15262 -0.03164,-0.16915 -0.01081,-0.0166 -0.04311,-0.11151 -0.07152,-0.21114 -0.05038,-0.17657 -0.04554,-0.18103 0.19475,-0.17716 0.135563,0.002 0.2932,0.0468 0.350317,0.0992 0.386463,0.3544 0.743351,1.15792 0.742553,1.67184 -2.32e-4,0.17251 0.0041,0.35233 0.0096,0.39961 0.0059,0.055 -0.03769,0.0789 -0.122008,0.0666 -0.166755,-0.0245 -0.288321,0.24201 -0.125809,0.27576 0.05507,0.0115 0.12331,-0.0341 0.151642,-0.10123 0.0448,-0.1061 0.04966,-0.10365 0.03715,0.0191 -0.01263,0.12381 0.02848,0.14356 0.33889,0.16119 0.194335,0.0111 0.620199,0.005 0.946363,-0.0123 0.326172,-0.0178 0.661647,-0.0244 0.745532,-0.0145 0.09957,0.0116 0.147958,-0.01 0.13941,-0.0624 -0.0092,-0.0567 0.0138,-0.0645 0.07876,-0.0265 0.133791,0.0782 0.572287,0.0764 0.604882,-0.002 0.06088,-0.14728 -0.392715,-0.34372 -0.72281,-0.31303 -0.045,0.004 -0.09056,-0.0458 -0.101208,-0.11112 -0.01621,-0.0993 -0.07236,-0.11007 -0.343156,-0.0659 -0.244637,0.0399 -0.327654,0.0291 -0.339631,-0.0443 -0.01087,-0.0666 -0.08256,-0.0862 -0.228076,-0.0625 -0.116738,0.019 -0.285623,-7.2e-4 -0.375311,-0.044 -0.208386,-0.10049 -0.540355,-0.33846 -0.484789,-0.34753 0.02329,-0.004 0.0045,-0.0343 -0.04215,-0.0677 -0.04649,-0.0335 -0.07564,-0.10347 -0.0648,-0.15563 0.01085,-0.0521 -0.01751,-0.0887 -0.06281,-0.0814 -0.0454,0.007 -0.0683,-0.006 -0.05094,-0.0303 0.01725,-0.0241 0.10217,-0.0197 0.188614,0.01 0.149706,0.0513 2.114427,0.1174 2.352324,0.0792 0.158773,-0.0254 0.129517,-0.0977 -0.114936,-0.28411 -0.24886,-0.18967 -0.417734,-0.43443 -0.454266,-0.6584 -0.01582,-0.097 -0.07347,-0.16717 -0.145165,-0.17673 -0.258679,-0.0345 -1.05097,-0.28278 -1.523832,-0.47755 -0.449193,-0.18502 -0.605353,-0.20902 -1.568345,-0.24102 -1.408708,-0.0468 -2.125159,-0.1053 -2.221474,-0.18139 -0.05548,-0.04384 -0.05254,-0.05253 0.0099,-0.02957 0.05431,0.01992 0.08206,-0.0063 0.07191,-0.06847 -0.0091,-0.05557 0.02479,-0.107685 0.07532,-0.115927 0.05053,-0.0082 0.09723,-0.04251 0.103899,-0.07632 0.0067,-0.03371 0.158403,-0.173452 0.337152,-0.310505 0.217653,-0.166885 0.324297,-0.296757 0.322873,-0.393195 -0.0013,-0.08906 0.02979,-0.131713 0.08147,-0.111773 0.04595,0.01773 -0.0717,-0.09422 -0.261388,-0.248776 -0.189744,-0.15455 -0.380181,-0.278308 -0.423193,-0.275021 -0.141859,0.01088 -0.158388,-0.07903 -0.152865,-0.831587 0.0065,-0.895451 0.0912,-1.929518 0.209139,-2.554556 0.04756,-0.251943 0.07035,-0.476591 0.05067,-0.499239 -0.0197,-0.02262 -0.01256,-0.145363 0.0159,-0.272727 0.02837,-0.127338 0.06566,-0.293661 0.08273,-0.369568 0.0171,-0.07594 0.01922,-0.173487 0.0048,-0.216833 -0.01417,-0.04339 0.0042,-0.08376 0.04138,-0.08983 0.03721,-0.0061 0.06047,-0.05475 0.05177,-0.108144 -0.0087,-0.05339 0.0076,-0.100948 0.03647,-0.105649 0.04935,-0.008 0.09841,-0.167142 0.28089,-0.910058 0.220313,-0.896874 0.760238,-2.531503 1.089681,-3.298998 0.205317,-0.478321 0.41538,-0.978541 0.466811,-1.111596 0.135111,-0.34955 0.517149,-0.968778 0.86756,-1.406152 0.321636,-0.401464 0.941848,-0.910385 1.031167,-0.846126 0.02927,0.02106 -0.04627,0.189015 -0.167851,0.37332 -0.121538,0.184289 -0.219093,0.346651 -0.216784,0.360804 0.0023,0.01411 0.07704,0.01388 0.166092,-6.46e-4 0.08902,-0.01452 0.158494,-0.04723 0.154357,-0.0726 -0.01904,-0.116707 4.047641,-1.214034 6.304036,-1.701047 1.62643,-0.351006 5.29361,-0.911873 7.06996,-1.081142 1.74513,-0.166356 5.99927,-0.383003 6.51572,-0.331834 0.12356,0.01227 0.26807,-0.0031 0.32114,-0.03404 0.053,-0.03094 0.0845,-0.02685 0.0698,0.0092 -0.0147,0.03603 0.0929,0.05314 0.23892,0.03814 l 0.26559,-0.02741 -0.184,-0.152092 c -0.10118,-0.0836 -0.2819,-0.229757 -0.40159,-0.324696 l -0.21761,-0.172611 0.26402,0.0051 c 0.3912,0.0075 0.68239,0.153063 1.43186,0.715741 0.49241,0.369693 0.86661,0.72834 1.37949,1.322181 1.02289,1.184349 1.86012,2.25545 2.27259,2.907422 0.19874,0.314135 0.39209,0.613958 0.42969,0.666269 0.0376,0.05233 0.1547,0.223125 0.26028,0.37958 0.10556,0.156457 0.22639,0.279307 0.26851,0.272995 0.0554,-0.0083 0.0566,0.0063 0.005,0.05285 -0.0545,0.04851 0.0169,0.210004 0.29025,0.656276 0.40524,0.661774 1.08666,2.11108 1.37894,2.932856 0.1057,0.297049 0.21518,0.588679 0.24338,0.648074 0.0323,0.06809 0.0165,0.113644 -0.044,0.123513 -0.0524,0.0085 -0.21631,0.190495 -0.3643,0.404349 -0.26107,0.377237 -0.2652,0.392613 -0.1383,0.516298 0.0719,0.07014 0.24196,0.167138 0.37785,0.215615 0.58227,0.207723 0.69764,0.268574 0.70668,0.372728 0.0137,0.158023 -0.1938,0.248995 -2.27795,0.998676 -0.54444,0.195839 -1.12068,0.534156 -1.18823,0.697612 -0.0385,0.09311 -1.06578,0.829481 -1.18416,0.848791 -0.0542,0.0088 -0.0913,0.05977 -0.0826,0.113166 0.0202,0.124051 0.24143,0.09 0.34431,-0.05312 0.0433,-0.06015 0.0951,-0.09758 0.11506,-0.08321 0.0872,0.06277 0.46604,0.002 0.59731,-0.09641 0.0919,-0.06849 0.25904,-0.110948 0.46398,-0.11793 0.31183,-0.01064 0.32375,-0.01795 0.45185,-0.278483 0.0724,-0.147167 0.11214,-0.281554 0.0884,-0.298652 -0.062,-0.0446 -0.35234,0.08604 -0.45066,0.202894 -0.0958,0.113801 -0.41304,0.265942 -0.54407,0.260939 -0.0488,-0.0022 -0.1295,0.0425 -0.1795,0.09858 -0.0691,0.07754 -0.0823,0.0804 -0.0551,0.01202 0.0511,-0.128223 0.40223,-0.335721 0.97764,-0.577791 0.69591,-0.292767 0.76291,-0.298527 0.59899,-0.0516 -0.0717,0.108058 -0.15635,0.278949 -0.18802,0.37968 -0.0317,0.100717 -0.10097,0.243763 -0.15399,0.317826 -0.0531,0.07411 -0.0873,0.190429 -0.0762,0.258599 0.0238,0.145803 -0.2138,0.272847 -0.89198,0.476974 -1.02796,0.30942 -1.32313,0.424711 -1.38446,0.540767 -0.0346,0.06552 -0.0504,0.128219 -0.035,0.139257 0.0474,0.03411 1.98132,-0.637482 2.23427,-0.775958 l 0.23882,-0.130752 -0.0251,0.212702 c -0.0396,0.335854 -0.43717,0.783212 -0.73976,0.832568 -0.10195,0.01663 -0.19131,0.07508 -0.20333,0.132864 -0.0145,0.06974 -0.11229,0.118017 -0.30155,0.148887 -0.21721,0.03543 -0.28433,0.07444 -0.29889,0.17364 -0.0104,0.0709 -0.15907,0.216694 -0.3334,0.326947 -0.26466,0.167378 -0.2928,0.203429 -0.17713,0.226924 0.0756,0.01532 0.19744,-0.01194 0.2707,-0.06057 0.0923,-0.06136 0.16352,-0.07064 0.23207,-0.03076 0.0662,0.03885 0.16941,0.02708 0.31194,-0.03558 0.11715,-0.05153 0.44298,-0.15088 0.72411,-0.220707 0.44622,-0.11088 0.97965,-0.311358 0.97092,-0.364881 -0.002,-0.01 -0.0784,-0.201947 -0.1707,-0.426623 -0.17078,-0.415963 -0.17888,-0.482943 -0.13832,-1.14055 l 0.0232,-0.3742 0.06,0.25613 c 0.11232,0.479279 0.19638,0.666003 0.29268,0.650296 0.0518,-0.0085 0.0988,0.01287 0.10439,0.04741 0.006,0.03444 0.0529,0.03788 0.10491,0.0075 0.0638,-0.03726 0.11447,-0.01057 0.15545,0.08181 0.042,0.09478 0.0955,0.121629 0.17342,0.08708 0.0929,-0.04119 0.12921,0.0014 0.20729,0.243376 0.0521,0.161335 0.10105,0.254887 0.10899,0.207886 0.0186,-0.111369 0.20264,-0.141386 0.20614,-0.03362 0.007,0.214868 0.0511,0.2178 0.99634,0.06621 0.5255,-0.0847 1.07403,-0.155021 1.21879,-0.157153 0.43286,-0.0065 0.77534,-0.447655 0.79392,-1.022776 0.008,-0.234846 0.0166,-0.25445 0.0459,-0.09919 0.0204,0.106365 0.0234,0.37387 0.007,0.59436 -0.016,0.220474 -0.0109,0.414053 0.0115,0.43015 0.0548,0.0394 0.18477,-0.224948 0.20018,-0.407236 0.0202,-0.239868 0.17657,-0.276715 0.25763,-0.06077 0.0387,0.103391 0.0985,0.199515 0.13262,0.213627 0.0341,0.01409 0.1132,0.339293 0.17573,0.722627 0.12568,0.770527 0.0932,1.182854 -0.11812,1.501294 -0.0711,0.10704 -0.10533,0.21446 -0.0761,0.23863 0.0292,0.0242 -0.12071,-0.0577 -0.33313,-0.18191 -0.21243,-0.12422 -0.40367,-0.20162 -0.42501,-0.17197 -0.0213,0.0296 -0.004,0.069 0.0389,0.0875 0.0427,0.0185 0.10884,0.0958 0.14691,0.17181 0.0657,0.13133 0.007,0.20231 -0.3016,0.36502 -0.0408,0.0214 -0.26557,0.16458 -0.63239,0.40252 -0.31608,0.20504 -1.11315,0.63898 -2.44232,1.32964 -0.43819,0.2277 -0.82242,0.43977 -0.85385,0.47127 -0.0314,0.0315 -0.12228,0.0621 -0.20188,0.0681 -0.14087,0.0105 -0.13914,0.0156 0.063,0.18224 0.11427,0.0943 0.33037,0.30823 0.48028,0.4754 0.25094,0.27984 0.29225,0.30074 0.52059,0.26349 0.13995,-0.0228 0.96097,-0.41567 1.88421,-0.90156 l 1.63619,-0.8611 0.3172,-0.43601 c 0.26639,-0.36616 0.31146,-0.47267 0.28134,-0.66492 l -0.0363,-0.22883 0.15302,0.14124 c 0.0841,0.0777 0.24645,0.32045 0.36067,0.53948 0.11425,0.21904 0.23403,0.41913 0.26628,0.44465 0.0322,0.0255 0.10835,-0.1963 0.16913,-0.49294 0.16483,-0.80453 0.1779,-0.95589 0.14419,-1.66919 -0.017,-0.35966 -0.0168,-0.723266 5.9e-4,-0.808013 0.0591,-0.289283 0.14484,-0.260272 0.23885,0.08083 0.16707,0.606231 0.5674,2.959313 0.72374,4.253893 0.0845,0.69923 0.25421,1.98776 0.37719,2.86345 0.15933,1.13401 0.20933,1.67101 0.17377,1.86632 -0.0275,0.15082 -4.5e-4,0.78967 0.06,1.41969 0.19494,2.03227 0.16087,2.81852 -0.15305,3.53192 -0.2368,0.53816 -0.32263,0.57987 -1.67875,0.81593 -0.40959,0.0719 -0.56195,0.12105 -0.55227,0.18036 0.0212,0.13007 -1.21239,0.34598 -1.34372,0.23518 z m -6.48088,-2.96547 c 2.04653,-0.41749 4.29318,-0.93543 4.34002,-1.00053 0.0178,-0.0247 0.0138,-0.0581 -0.009,-0.0742 -0.04,-0.0288 -2.08141,0.43808 -3.60757,0.82505 -1.20854,0.30643 -8.3337,1.54429 -11.83056,2.05532 -6.746423,0.98593 -9.579152,1.29638 -11.636933,1.27532 -0.08139,-8.1e-4 -0.153406,0.0402 -0.164511,0.0937 -0.02362,0.11362 0.09921,0.11689 1.193732,0.0318 2.059769,-0.16012 5.166202,-0.51728 8.352752,-0.96038 2.87922,-0.40033 11.0336,-1.77102 13.36174,-2.246 z m 7.01223,-1.94702 c 1.76179,-0.92684 2.4104,-1.60738 2.39615,-2.51405 -0.003,-0.21746 -0.0367,-0.32717 -0.12467,-0.41024 -0.1114,-0.10527 -0.11472,-0.0852 -0.0466,0.28011 0.0573,0.30813 0.0497,0.45082 -0.0358,0.65765 -0.23162,0.56046 -1.15537,1.29738 -2.51829,2.00894 -0.37907,0.1979 -0.68722,0.37198 -0.6848,0.38684 0.0126,0.0773 0.34105,-0.0551 1.01395,-0.40924 z m -31.715737,5.18967 c -0.03871,-0.0243 -0.440448,-0.1122 -0.892776,-0.19537 -0.932917,-0.17151 -1.954549,-0.47226 -2.351374,-0.69222 -0.371224,-0.20575 -0.612965,-0.57025 -0.692999,-1.0449 -0.05939,-0.35166 -0.07102,-0.37208 -0.139294,-0.24274 -0.18345,0.34738 0.182338,1.00234 0.764129,1.36799 0.515971,0.32433 1.127849,0.50793 2.54398,0.76337 0.64333,0.11603 0.90732,0.13111 0.768354,0.0439 z m 30.670287,-6.19631 c 0.14525,-0.11822 0.27308,-0.2096 0.28405,-0.2031 0.0112,0.006 0.0621,-0.0217 0.11355,-0.0627 0.0821,-0.0653 0.0663,-0.10394 -0.12792,-0.31406 -0.12181,-0.13179 -0.23075,-0.23809 -0.24199,-0.23626 -0.0113,0.002 -0.0855,0.0869 -0.16504,0.18899 -0.0795,0.10213 -0.22856,0.21899 -0.33119,0.25973 -0.22259,0.0884 -0.25404,0.19373 -0.14652,0.49095 0.093,0.2571 0.16501,0.24264 0.61507,-0.12363 z m -0.79771,3.3e-4 c -0.0223,-0.13657 -0.0395,-0.1468 -0.11037,-0.0654 -0.0462,0.053 -0.0721,0.1693 -0.0576,0.25835 0.0223,0.13656 0.0396,0.14679 0.11036,0.0654 0.0462,-0.053 0.0721,-0.1693 0.0576,-0.25834 z m -29.607886,4.94534 c 0.02376,-0.16242 0.09048,-0.18331 0.221374,-0.0693 0.228192,0.19869 0.271405,-0.009 0.04924,-0.23732 -0.12702,-0.13028 -0.135369,-0.13053 -0.163111,-0.005 -0.0279,0.12652 -0.03215,0.12653 -0.09389,2.2e-4 -0.04075,-0.0833 -0.178802,-0.15579 -0.372972,-0.19578 -0.186353,-0.0384 -0.346158,-0.12015 -0.404044,-0.20675 -0.09206,-0.13765 -0.213811,-0.18271 -0.195824,-0.0724 0.0048,0.0292 -0.07573,0.19191 -0.178886,0.36157 -0.106515,0.1752 -0.150303,0.30294 -0.101347,0.29565 0.04739,-0.007 0.321199,0.0524 0.608438,0.13221 0.287248,0.0798 0.542236,0.14233 0.566651,0.13902 0.0244,-0.003 0.05347,-0.0673 0.06434,-0.14222 z m 17.259316,-3.41655 c -0.42903,0.003 -2.16618,0.28929 -1.84509,0.30399 0.12893,0.006 0.67153,-0.0606 1.20577,-0.14783 0.698,-0.11392 0.8779,-0.15789 0.63932,-0.15616 z m 0.89219,-0.14958 c -0.0595,-0.0428 -0.13397,-0.0322 -0.25659,0.0368 -0.17091,0.0959 -0.16998,0.0965 0.0838,0.0603 0.18842,-0.0267 0.23434,-0.0526 0.17283,-0.0969 z m 2.1553,-0.32287 c -0.95604,0.10801 -1.90379,0.26027 -1.86893,0.29977 0.0209,0.024 0.53815,-0.0437 1.14932,-0.15038 0.61115,-0.10678 0.93495,-0.17418 0.71954,-0.14979 z M 114.673,109.436 c -0.0827,-0.002 -0.21378,0.0191 -0.29141,0.0475 -0.0776,0.0285 -0.01,0.0304 0.15028,0.004 0.16028,-0.0261 0.22378,-0.0495 0.14113,-0.0518 z m -7.32848,1.12645 c -0.26023,0.0298 -0.68277,0.0987 -0.93898,0.15316 -0.25621,0.0545 -0.0433,0.0299 0.47313,-0.0543 0.51643,-0.0842 0.72606,-0.12876 0.46585,-0.0989 z m 1.00513,-0.15989 c -0.0645,-0.006 -0.18121,0.0123 -0.25919,0.0413 -0.078,0.0286 -0.0252,0.0336 0.11738,0.0112 0.14259,-0.0225 0.20643,-0.0459 0.14187,-0.052 z m 17.41898,-3.32625 c 0.39621,-0.18702 0.76509,-0.89468 0.57746,-1.10783 -0.0357,-0.0406 -0.0649,-0.12454 -0.0649,-0.18655 2.1e-4,-0.15528 -0.25487,-0.48556 -0.34738,-0.44983 -0.0416,0.0159 -0.15597,-0.006 -0.25434,-0.0485 -0.0984,-0.0427 -0.29409,-0.0791 -0.43491,-0.0808 -0.20305,-0.002 -0.27176,0.0244 -0.33201,0.12984 -0.0551,0.0963 -0.0889,0.11208 -0.1231,0.0571 -0.0702,-0.11293 -0.15723,-0.005 -0.0947,0.11772 0.0445,0.0873 0.0396,0.091 -0.0288,0.0214 -0.14301,-0.14536 -0.16354,0.20884 -0.0418,0.7215 0.11576,0.48732 0.21936,0.63309 0.24385,0.34293 0.0132,-0.15632 0.11322,-0.2565 0.14198,-0.14222 0.006,0.0264 0.037,0.14142 0.0673,0.25577 0.0304,0.11431 0.0321,0.22783 0.004,0.2522 -0.0571,0.0495 -0.38009,-0.16319 -0.45496,-0.29961 -0.0265,-0.0485 -0.0632,-0.0693 -0.0814,-0.0464 -0.076,0.0959 0.31141,0.42732 0.5869,0.50191 0.344,0.0932 0.35934,0.0922 0.63662,-0.0387 z m -0.15711,-0.17181 c -0.15603,0.001 -0.24122,-0.0345 -0.25922,-0.10829 -0.0149,-0.0604 -0.0571,-0.17997 -0.0941,-0.26569 -0.0562,-0.12996 -0.0413,-0.16708 0.0888,-0.22327 0.0859,-0.0371 0.15135,-0.0965 0.14555,-0.13206 -0.006,-0.0355 -0.0485,-0.0426 -0.0947,-0.0156 -0.059,0.0345 -0.0805,0.0101 -0.072,-0.0809 0.0149,-0.15823 -0.0475,-0.15632 -0.16353,0.005 -0.0795,0.11043 -0.0982,0.10944 -0.22536,-0.0121 -0.0762,-0.0729 -0.12882,-0.14626 -0.11676,-0.16301 0.0121,-0.0168 0.19893,-0.0734 0.4153,-0.1258 0.28795,-0.0698 0.41219,-0.0743 0.46348,-0.0165 0.11429,0.12859 0.0984,0.21758 -0.0189,0.10601 -0.15093,-0.14356 -0.19948,-0.002 -0.13998,0.40907 0.0261,0.17856 0.0416,0.37049 0.0348,0.42644 -0.0174,0.14588 0.19144,0.062 0.46371,-0.18615 0.21717,-0.19794 0.2403,-0.15728 0.0693,0.12198 -0.12183,0.19906 -0.236,0.25902 -0.49656,0.26077 z m -34.155932,5.31338 c 0.112131,-0.16785 0.197103,-0.34263 0.188828,-0.3884 -0.0081,-0.0458 -0.05536,-0.008 -0.104715,0.0833 -0.08721,0.16183 -0.0908,0.1524 -0.130432,-0.34123 -0.04522,-0.56362 -0.09224,-0.71582 -0.266176,-0.86098 -0.08128,-0.0678 -0.128533,-0.0735 -0.151418,-0.0182 -0.02376,0.0575 -0.08244,0.0586 -0.204841,0.004 -0.147073,-0.0654 -0.209494,-0.058 -0.436887,0.0515 -0.145915,0.0703 -0.281553,0.16709 -0.301424,0.21516 -0.01983,0.048 -0.08341,0.0775 -0.141194,0.0656 -0.14787,-0.0307 -0.211925,0.29624 -0.14998,0.76553 0.04025,0.30267 0.08709,0.41904 0.226924,0.56002 0.256424,0.25854 0.574237,0.34102 0.952179,0.24711 0.271,-0.0673 0.343894,-0.12114 0.519132,-0.38351 z m -1.333688,0.0892 c -0.288107,-0.2371 -0.307475,-0.34584 -0.02534,-0.14293 0.207238,0.14911 0.54501,0.23041 0.605868,0.14583 0.01594,-0.0222 -0.01228,-0.094 -0.06231,-0.15966 -0.05023,-0.0657 -0.103673,-0.19518 -0.118783,-0.28782 -0.02535,-0.15542 -0.01521,-0.16403 0.131399,-0.1114 0.08738,0.0313 0.183248,0.0454 0.213033,0.0312 0.02974,-0.014 0.04601,0.0442 0.03613,0.12956 -0.0099,0.0854 -0.02222,0.23151 -0.02731,0.32457 -0.0081,0.14666 -0.04402,0.1749 -0.26942,0.21166 -0.213281,0.0348 -0.30022,0.009 -0.483084,-0.14109 z m 0.984033,-0.10549 c 0.02567,-0.0749 0.03677,-0.19638 0.02476,-0.26995 -0.03178,-0.19484 0.07973,-0.18099 0.190793,0.0237 0.107633,0.19834 0.05496,0.33073 -0.143351,0.36307 -0.09741,0.0159 -0.110446,-0.005 -0.07225,-0.1168 z m -1.212478,-0.37168 c -0.02914,-0.0501 -0.02472,-0.0957 0.0096,-0.10126 0.03444,-0.006 0.0699,0.0335 0.07861,0.0869 0.0087,0.0534 0.0044,0.099 -0.0096,0.10127 -0.01402,0.002 -0.04937,-0.0368 -0.07861,-0.0869 z m 0.747296,-0.20598 c -0.04404,-0.0197 -0.111131,-0.098 -0.14922,-0.17408 -0.08807,-0.17591 -0.170886,-0.16367 -0.188992,0.0278 -0.0077,0.0819 -0.03511,0.13383 -0.06083,0.11533 -0.02571,-0.0185 -0.02358,-0.10109 0.0045,-0.18351 0.04688,-0.13688 0.08672,-0.15179 0.459347,-0.17179 0.224421,-0.0121 0.456264,-10e-4 0.515194,0.0236 0.08884,0.0378 0.08743,0.0428 -0.0085,0.0294 -0.07475,-0.0104 -0.122417,0.0308 -0.135015,0.11676 -0.02067,0.141 -0.16357,0.20067 -0.247942,0.10356 -0.08008,-0.0922 -0.192067,-0.046 -0.1332,0.055 0.06019,0.10318 0.05587,0.10771 -0.0555,0.0579 z m 33.901859,-5.42902 c -0.0252,-0.0416 -0.034,-0.003 -0.0195,0.0863 0.0145,0.089 0.0352,0.12306 0.0459,0.0756 0.0107,-0.0474 -0.001,-0.12031 -0.0264,-0.16189 z m -33.057738,5.1926 c -0.02522,-0.0416 -0.03396,-0.003 -0.01947,0.0863 0.01452,0.089 0.03517,0.12308 0.04587,0.0756 0.0107,-0.0475 -0.0012,-0.1203 -0.02641,-0.1619 z m 32.878208,-5.6319 c 0.13633,-0.45023 0.4311,-0.71254 0.88591,-0.78833 0.36715,-0.0609 0.63214,0.0127 0.9139,0.25468 0.24394,0.2095 0.34529,0.14756 0.11785,-0.072 -0.28295,-0.27315 -0.52383,-0.35608 -0.92879,-0.31974 -0.61769,0.0555 -0.97692,0.39188 -1.13753,1.06541 -0.09,0.37728 0.0248,0.26925 0.14866,-0.14 z m -32.60046,5.38717 c -0.401873,-0.80929 -1.381044,-1.0623 -2.008627,-0.51899 -0.178324,0.15437 -0.369827,0.54276 -0.294396,0.59704 0.02296,0.0165 0.124971,-0.099 0.226696,-0.25662 0.364957,-0.5656 0.973996,-0.68024 1.54136,-0.29011 0.200056,0.13757 0.361696,0.30747 0.406795,0.42762 0.04119,0.10965 0.102307,0.19488 0.135864,0.18941 0.03356,-0.005 0.03017,-0.0722 -0.0077,-0.14833 z m 2.941307,-3.01298 c 0.211731,-0.46502 0.178044,-0.64776 -0.06096,-0.33025 -0.140605,0.18684 -0.441644,0.94883 -0.422127,1.06849 0.01637,0.10036 0.295324,-0.32598 0.483019,-0.73823 z m 13.399103,-4.85493 c 0.54808,-0.23794 1.15689,-0.7058 1.68111,-1.29184 0.65576,-0.73312 1.17172,-1.1828 1.5071,-1.31355 0.15848,-0.0618 1.53894,-0.51402 3.06767,-1.005007 1.52873,-0.490972 2.81389,-0.911161 2.85591,-0.93376 0.042,-0.02266 0.0687,-0.08801 0.0594,-0.145404 -0.013,-0.07945 -0.058,-0.08871 -0.18914,-0.03876 -0.0946,0.036 -1.05399,0.34477 -2.13179,0.68604 -3.32148,1.051711 -3.61886,1.149331 -4.44863,1.460481 -0.0516,0.0194 -0.10764,0.0431 -0.12437,0.0526 -0.0167,0.01 -0.0931,0.0223 -0.16963,0.0287 -0.0766,0.006 -0.14906,0.0593 -0.16114,0.11747 -0.0124,0.0596 -0.0669,0.0964 -0.12482,0.0845 -0.0689,-0.0143 -0.15662,0.0924 -0.26559,0.32314 -0.37381,0.79131 -0.68158,1.11747 -1.44541,1.53181 -1.14473,0.62096 -2.86047,0.50993 -3.65838,-0.23682 -0.16832,-0.15752 -0.37051,-0.34175 -0.44929,-0.40941 -0.0788,-0.0677 -0.12822,-0.14663 -0.10988,-0.17549 0.0184,-0.0288 -0.0144,-0.026 -0.0726,0.006 -0.0635,0.0352 -0.10461,0.0282 -0.10254,-0.0174 0.002,-0.0457 -0.092,-0.0614 -0.23551,-0.0391 -0.13139,0.0204 -0.22778,0.0102 -0.21418,-0.0227 0.0136,-0.0329 0.0906,-0.053 0.1712,-0.0446 0.12874,0.0134 0.1313,0.009 0.021,-0.0376 -0.069,-0.0291 -0.15262,-0.0292 -0.1858,-3.9e-4 -0.0332,0.0288 -0.1,0.0305 -0.14844,0.004 -0.0484,-0.0267 -0.19284,-0.0487 -0.32084,-0.0489 -4.456002,-0.005 -6.831082,0.005 -6.895765,0.0297 -0.06675,0.0256 -0.06316,0.0476 0.02001,0.1227 0.07639,0.0689 0.822908,0.0915 3.026481,0.0915 3.577374,1e-5 3.483564,-0.005 3.930384,0.2005 0.20045,0.0921 0.38359,0.16432 0.40699,0.1605 0.0234,-0.004 0.2517,0.12288 0.50734,0.28157 0.84925,0.52714 1.57576,0.79752 2.34988,0.87452 0.48934,0.0487 1.38655,-0.0947 1.84912,-0.29553 z m -0.83809,-0.66259 c -0.17492,-0.0924 -0.29991,-0.0714 -0.48917,0.0818 -0.13949,0.11303 -0.12746,0.11582 0.24178,0.0558 0.35554,-0.0578 0.37657,-0.0695 0.24737,-0.13772 z m -0.93833,0.0907 c -0.72991,-0.10359 -1.24785,-0.67904 -1.07247,-1.19154 0.0447,-0.13075 0.05,-0.13161 0.27523,-0.0448 0.12629,0.0487 0.37367,0.10037 0.54972,0.11492 0.30968,0.0256 0.32135,0.0342 0.3591,0.26563 0.031,0.18992 0.0833,0.2619 0.25377,0.34959 0.27497,0.1414 0.34978,0.12591 0.53381,-0.11048 0.10622,-0.13646 0.14019,-0.25718 0.1153,-0.40978 -0.0333,-0.20417 -0.0187,-0.22347 0.25981,-0.34315 0.1623,-0.0697 0.38042,-0.19739 0.48471,-0.28364 0.18603,-0.15388 0.19123,-0.15472 0.2752,-0.045 0.1213,0.15851 0.16212,0.48268 0.089,0.70506 -0.099,0.30077 -0.31801,0.53983 -0.66649,0.72762 -0.1776,0.0957 -0.26292,0.16521 -0.18958,0.15445 0.205,-0.0304 0.70803,-0.41902 0.96199,-0.7438 0.20279,-0.25935 0.223,-0.32463 0.18074,-0.58378 -0.0843,-0.51655 -0.63179,-0.92036 -1.32249,-0.97537 -0.51466,-0.041 -1.2557,0.10029 -1.64357,0.31337 -0.65584,0.36024 -1.02047,1.1276 -0.72483,1.52546 0.23102,0.31094 1.11254,0.70223 1.44322,0.64064 0.0709,-0.0136 -0.002,-0.0426 -0.16211,-0.0653 z m 0.50708,-0.53676 c -0.0459,-0.04 -0.12311,-0.19198 -0.17144,-0.33767 l -0.0879,-0.26492 0.27452,-0.0448 0.27451,-0.0448 -0.006,0.24904 c -0.0105,0.44128 -0.10909,0.59523 -0.2838,0.4431 z m -0.914,-0.85191 c -0.3225,-0.0424 -0.40559,-0.19385 -0.221,-0.40261 0.13601,-0.15381 0.63122,-0.41499 0.69704,-0.36763 0.0638,0.046 -0.0636,0.79348 -0.13639,0.79992 -0.0377,0.003 -0.19049,-0.0101 -0.33966,-0.0297 z m 0.62339,-0.0469 c -0.0173,-0.10619 0.1189,-0.51586 0.17456,-0.52494 0.0871,-0.0142 0.2352,0.18414 0.26253,0.35169 0.0179,0.10971 -0.019,0.14042 -0.20483,0.17074 -0.12465,0.0203 -0.22917,0.0215 -0.23226,0.002 z m 0.61311,-0.34438 c -0.0703,-0.14546 -0.16314,-0.29576 -0.20629,-0.334 -0.12121,-0.10743 0.0627,-0.18058 0.37424,-0.14889 0.1483,0.0151 0.3125,0.0648 0.36491,0.11039 0.0524,0.0457 0.11851,0.0627 0.14692,0.0382 0.0284,-0.0247 0.0639,0.0304 0.0789,0.12246 0.0284,0.1738 -0.0537,0.24871 -0.43853,0.40053 -0.18375,0.0725 -0.19803,0.0641 -0.32017,-0.18861 z m 13.505,-2.359092 c -0.008,-0.05132 -0.0443,-0.08862 -0.08,-0.08281 -0.0356,0.0058 -0.055,0.07057 -0.043,0.143898 0.012,0.07333 0.0479,0.110577 0.08,0.08271 0.032,-0.02782 0.0514,-0.09258 0.043,-0.143898 z m -27.952738,4.346232 c 0.083,-0.0925 0.07958,-0.0985 -0.03442,-0.062 -0.0908,0.0291 -0.120718,0.0956 -0.106373,0.23607 0.01244,0.11978 0.02549,0.14384 0.03442,0.062 0.008,-0.0735 0.05589,-0.17975 0.106373,-0.23607 z m 9.941938,-2.07245 c -0.0379,-0.008 -1.02272,0.007 -2.18856,0.0322 -1.165842,0.0258 -2.772769,0.0612 -3.570944,0.0789 -0.798187,0.0176 -1.496036,0.0493 -1.550801,0.0704 -0.05482,0.0211 0.928776,0.0153 2.18563,-0.013 1.256843,-0.0283 2.851965,-0.0612 3.544735,-0.0732 1.14397,-0.0198 1.76084,-0.057 1.57994,-0.0954 z m 9.06966,-1.549668 c -0.025,-0.01801 -0.0813,-0.01117 -0.12493,0.01531 -0.0482,0.02905 -0.0304,0.04195 0.0455,0.03271 0.0688,-0.0082 0.10447,-0.02991 0.0794,-0.04791 z m 0.5419,-0.158302 c -0.0467,-0.01062 -0.13434,0.0026 -0.1946,0.02971 -0.0603,0.02665 -0.0221,0.03532 0.085,0.01927 0.107,-0.01644 0.15641,-0.03798 0.10969,-0.04849 z m 0.53829,-0.156496 c -0.065,-0.0061 -0.16698,0.01052 -0.22665,0.03697 -0.0597,0.02646 -0.007,0.03146 0.11815,0.01113 0.12466,-0.02033 0.17348,-0.04197 0.1085,-0.04809 z m 0.47671,-0.141994 c -0.0467,-0.01062 -0.13434,0.0026 -0.1946,0.02971 -0.0603,0.02665 -0.0221,0.03532 0.085,0.01927 0.10701,-0.01644 0.15643,-0.03798 0.10971,-0.04849 z m 0.57224,-0.159806 c -0.0467,-0.01062 -0.13434,0.0026 -0.19459,0.02971 -0.0603,0.02665 -0.0221,0.03532 0.085,0.01927 0.10701,-0.01644 0.15642,-0.03798 0.10969,-0.04849 z m 0.5075,-0.149244 c -0.0467,-0.01062 -0.13434,0.0026 -0.1946,0.02971 -0.0603,0.02666 -0.0221,0.03532 0.085,0.01927 0.10701,-0.01644 0.15643,-0.03798 0.1097,-0.04849 z m 0.50749,-0.149245 c -0.0467,-0.01062 -0.13434,0.0026 -0.19458,0.02971 -0.0603,0.02665 -0.0221,0.03532 0.085,0.01927 0.107,-0.01644 0.15642,-0.03798 0.10969,-0.04849 z m 0.47353,-0.145934 c -0.065,-0.0061 -0.16697,0.01052 -0.22664,0.03697 -0.0596,0.02644 -0.007,0.03146 0.11815,0.01113 0.12465,-0.02033 0.17348,-0.04197 0.10849,-0.04809 z m 0.5075,-0.149244 c -0.065,-0.0061 -0.16698,0.01052 -0.22665,0.03697 -0.0597,0.02646 -0.007,0.03146 0.11815,0.01113 0.12467,-0.02033 0.17349,-0.04198 0.1085,-0.04809 z m 0.57302,-0.159831 c -0.0645,-0.0061 -0.18121,0.01233 -0.25919,0.04126 -0.078,0.02863 -0.0252,0.0336 0.11739,0.01115 0.14258,-0.02253 0.20642,-0.04593 0.14187,-0.05202 z m 0.44196,-0.138757 c -0.0649,-0.0061 -0.16699,0.01052 -0.22666,0.03697 -0.0597,0.02646 -0.007,0.03146 0.11816,0.01113 0.12466,-0.02033 0.17348,-0.04198 0.1085,-0.04809 z m 0.4767,-0.141993 c -0.0467,-0.01062 -0.13434,0.0026 -0.1946,0.02971 -0.0603,0.02665 -0.0221,0.03532 0.085,0.01927 0.10701,-0.01644 0.15642,-0.03798 0.1097,-0.04849 z m -26.758593,0.718176 c -0.0087,-0.05339 0.0079,-0.100997 0.03696,-0.105729 0.02902,-0.0047 0.0974,-0.130614 0.151893,-0.279711 0.268063,-0.733581 0.653707,-0.992895 2.049671,-1.378237 1.183883,-0.326797 1.265663,-0.334665 1.568392,-0.150912 0.288416,0.175073 0.397313,0.187667 0.288429,0.0334 -0.140495,-0.199109 -0.09697,-0.290741 0.211902,-0.445715 0.274377,-0.137666 1.461289,-0.340909 11.091516,-1.899113 5.93141,-0.959366 10.8525,-1.739349 10.93588,-1.732583 0.0834,0.0068 0.15862,0.05539 0.16723,0.10817 0.0198,0.121485 0.11424,0.106549 0.27857,-0.04442 0.10117,-0.0927 0.42128,-0.168618 1.48739,-0.352583 1.58529,-0.273573 1.64691,-0.267635 2.26912,0.224033 0.35331,0.279143 0.48286,0.427797 0.69375,0.796112 0.0656,0.114564 0.0697,0.112514 0.0711,-0.03541 0.002,-0.225089 -0.24049,-0.907936 -0.54263,-1.527224 l -0.26027,-0.533449 -0.69266,0.06506 c -0.38097,0.0358 -0.93823,0.125881 -1.23842,0.199972 -0.64827,0.160554 -4.59261,0.795304 -4.69046,0.754928 -0.0374,-0.01548 -4.77864,0.728581 -10.53619,1.653307 -5.757525,0.924724 -10.747233,1.713265 -11.088222,1.752267 -0.340998,0.039 -1.122175,0.135112 -1.735945,0.213542 l -1.115941,0.142708 -0.06849,0.433105 c -0.092,0.581738 -0.121271,1.349281 -0.06469,1.696186 0.04314,0.264485 0.0665,0.291557 0.34837,0.403562 0.351014,0.139492 0.405199,0.140665 0.383618,0.0084 z m 29.493323,-8.250999 c -0.21068,-0.37697 -0.46515,-0.8319 -0.56548,-1.010943 -0.24426,-0.435863 -1.60827,-2.320654 -2.28737,-3.160688 -0.52612,-0.650812 -1.30228,-1.516068 -1.35259,-1.507863 -0.0134,0.0022 6.2e-4,0.05968 0.031,0.127909 0.0303,0.06822 0.0839,0.11927 0.11913,0.113523 0.0352,-0.0057 0.0541,0.03757 0.0419,0.09633 -0.0127,0.06124 0.002,0.08543 0.0354,0.05674 0.0317,-0.02746 0.065,-0.0045 0.0741,0.05094 0.0296,0.181432 0.038,0.195537 0.20081,0.32019 0.0884,0.06786 0.1425,0.126337 0.12039,0.129945 -0.0222,0.0036 0.004,0.08905 0.0591,0.189797 0.0546,0.100779 0.12575,0.178931 0.15783,0.173697 0.0322,-0.0052 0.0656,0.03439 0.0743,0.08808 0.009,0.05369 0.231,0.407448 0.49386,0.7861 0.26287,0.378643 0.48179,0.712079 0.4865,0.740947 0.005,0.02892 0.0777,0.1102 0.16243,0.180697 0.0847,0.07049 0.15938,0.162006 0.16612,0.20332 0.007,0.04126 0.10972,0.214241 0.22888,0.384287 0.11913,0.17005 0.22141,0.338461 0.22725,0.374257 0.006,0.03583 0.0397,0.06029 0.0754,0.05448 0.0356,-0.0058 0.0718,0.03267 0.0804,0.08557 0.009,0.0529 0.12991,0.258518 0.26944,0.457036 0.13957,0.198521 0.3281,0.504795 0.41897,0.68062 0.0909,0.175821 0.19168,0.345277 0.22404,0.376566 0.0324,0.0313 0.0921,0.126246 0.1327,0.211039 0.19588,0.408515 0.33388,0.543855 0.52303,0.513003 l 0.18585,-0.03032 z m -29.267672,5.215876 c 0.117225,-0.114261 0.119081,-0.137483 0.01749,-0.21892 -0.06248,-0.05009 -0.139794,-0.191513 -0.171813,-0.31427 -0.05664,-0.217447 -0.06006,-0.21231 -0.132812,0.199462 -0.04101,0.232455 -0.05508,0.436683 -0.03123,0.453837 0.07427,0.05344 0.182068,0.01276 0.318336,-0.120114 z m 0.319081,-1.131368 c 0.03235,-0.0073 0.07869,-0.145051 0.103007,-0.30647 0.02433,-0.161422 0.08329,-0.434485 0.131061,-0.606823 0.04778,-0.17233 0.106516,-0.383793 0.130543,-0.469924 0.02405,-0.0861 0.05766,-0.146534 0.07477,-0.134227 0.01711,0.01231 0.0072,0.09357 -0.0231,0.180776 -0.07538,0.220257 0.05106,1.061182 0.162483,1.080638 0.05433,0.0095 0.06527,-0.01976 0.02981,-0.08065 -0.03347,-0.05736 -0.01628,-0.118444 0.04161,-0.152416 0.06263,-0.03656 0.08469,-0.134457 0.06185,-0.274457 -0.03867,-0.237097 0.185398,-1.22777 0.489838,-2.165702 0.105892,-0.326242 0.193699,-0.658258 0.195099,-0.737821 0.0014,-0.07956 0.02352,-0.20431 0.04931,-0.277264 0.111222,-0.315743 0.289601,-1.038911 0.261523,-1.06029 -0.01689,-0.01285 -0.06345,0.03963 -0.103384,0.116564 -0.07487,0.144162 -0.677656,1.770949 -0.829714,2.239174 -0.169654,0.522405 -0.133747,0.210314 0.05228,-0.454474 0.104651,-0.373974 0.181368,-0.734598 0.170476,-0.801375 -0.0109,-0.06682 0.0065,-0.125724 0.03862,-0.130956 0.04935,-0.008 0.137003,-0.316827 0.118649,-0.418235 -0.0032,-0.01782 0.04183,-0.174682 0.100038,-0.348713 0.05824,-0.174036 0.103569,-0.36092 0.100757,-0.415307 -0.0028,-0.05436 0.03284,-0.24718 0.07925,-0.428436 0.04643,-0.181248 0.07419,-0.327881 0.06176,-0.325852 -0.04126,0.0067 -0.773712,1.874796 -1.079705,2.753638 -0.342449,0.983567 -0.764511,2.479148 -0.740747,2.624843 0.0087,0.05359 -0.03006,0.274115 -0.08628,0.48997 -0.05618,0.21586 -0.100298,0.404016 -0.098,0.418119 0.0023,0.01411 0.104366,-0.04793 0.226823,-0.137812 0.122447,-0.08988 0.249089,-0.169337 0.281431,-0.176477 z m 0.429076,-1.715154 c -0.0093,-0.07589 0.0036,-0.09381 0.03281,-0.04548 0.02638,0.04372 0.03312,0.09993 0.01531,0.124925 -0.01801,0.02502 -0.03955,-0.01077 -0.04791,-0.07942 z m 11.624685,-0.347425 c 0.12497,-0.177159 0.21766,-0.380755 0.20597,-0.452418 -0.0375,-0.230148 0.0841,-0.306964 0.62984,-0.397681 0.28656,-0.04773 0.64666,-0.138 0.80021,-0.200738 0.64378,-0.263231 1.91876,-0.643489 2.7456,-0.818844 0.4873,-0.103394 0.89766,-0.216126 0.91192,-0.250651 0.0142,-0.03454 0.0532,-0.335437 0.0866,-0.668746 0.064,-0.639562 0.18216,-1.101653 0.3455,-1.35173 0.0542,-0.0829 0.15098,-0.375461 0.2151,-0.650026 0.0641,-0.274564 0.1514,-0.571364 0.19392,-0.65957 0.0426,-0.0882 0.0743,-0.179172 0.0705,-0.202158 -0.004,-0.023 -0.53827,0.03947 -1.18784,0.13873 -1.16295,0.177733 -1.18244,0.182737 -1.26935,0.34784 l -0.0883,0.167292 -2.3165,0.390307 c -1.27403,0.2149 -2.56675,0.451592 -2.87258,0.526606 -0.30585,0.07491 -0.83948,0.160941 -1.18581,0.19139 -0.595165,0.05179 -0.629926,0.04702 -0.632632,-0.08778 -0.0024,-0.120471 0.05151,-0.157557 0.347082,-0.238728 0.31194,-0.08563 0.28819,-0.08723 -0.218375,-0.01423 -0.312608,0.04491 -0.563982,0.108608 -0.558654,0.141276 0.0053,0.03267 0.03584,0.06508 0.06778,0.07203 0.03193,0.007 0.21677,0.285954 0.41065,0.619969 0.193879,0.334025 0.437649,0.713076 0.541709,0.842361 0.25729,0.31966 0.55363,0.921069 0.78472,1.592575 0.10588,0.307446 0.19578,0.579704 0.1999,0.60499 0.004,0.02527 0.18116,0.05597 0.39337,0.06809 0.46551,0.02669 0.70155,0.133048 0.91712,0.413309 0.0892,0.116037 0.17871,0.208278 0.19882,0.204998 0.0201,-0.0033 0.1388,-0.150913 0.26377,-0.328072 z m 4.49302,-0.972209 c 0.14977,-0.197545 0.32764,-0.340495 0.53855,-0.432812 0.23288,-0.101919 0.30994,-0.16839 0.29579,-0.255114 -0.0233,-0.142912 0.0677,-0.159875 -0.95052,0.17733 l -0.84887,0.281121 0.0701,0.186626 c 0.0385,0.102647 0.079,0.241264 0.0899,0.308041 0.0163,0.100058 0.0693,0.113351 0.30068,0.0756 0.23777,-0.03878 0.31517,-0.09103 0.50448,-0.340778 z m 11.09514,-1.938679 c -0.23686,-0.677374 -1.15656,-2.028612 -2.20628,-3.241486 -0.097,-0.112144 -0.21441,-0.262112 -0.26078,-0.333265 -0.0874,-0.134105 -0.24368,-0.231228 -0.22506,-0.139864 0.006,0.02866 0.0626,0.101642 0.12617,0.162246 0.0636,0.06055 0.12222,0.151126 0.13038,0.201154 0.008,0.05004 0.0841,0.160881 0.16872,0.246363 0.0847,0.08549 0.18869,0.237663 0.23123,0.338187 0.0425,0.100523 0.16534,0.303035 0.2729,0.450026 0.10757,0.147001 0.32155,0.456125 0.47551,0.686961 0.15396,0.230836 0.37101,0.554943 0.48234,0.720236 0.11136,0.165289 0.28981,0.450299 0.39662,0.633342 0.27534,0.471859 0.37904,0.60253 0.43772,0.551558 0.0282,-0.02446 0.0149,-0.148434 -0.0295,-0.275449 z M 101.9119,87.855616 c 0.14733,-0.05392 0.1596,-0.07933 0.0852,-0.176539 -0.0746,-0.09746 -0.16017,-0.101652 -0.60268,-0.02947 -0.30068,0.04904 -0.51137,0.111173 -0.50522,0.148874 0.006,0.03563 0.0807,0.0533 0.16639,0.03933 0.12671,-0.02067 0.15332,0.0012 0.14237,0.11722 -0.0126,0.133788 0.004,0.137074 0.26417,0.05306 0.15272,-0.04923 0.3551,-0.117903 0.44976,-0.152494 z m 21.28065,10.431947 c 0.002,-0.09179 0.0157,-0.168765 0.0294,-0.170986 0.0136,-0.0022 0.0367,0.06878 0.0513,0.157834 0.0145,0.08902 10e-4,0.165979 -0.0294,0.170986 -0.0307,0.005 -0.0537,-0.06601 -0.0512,-0.15785 z m -0.064,-0.492093 c -0.006,-0.0377 0.0209,-0.05528 0.0601,-0.03908 0.0392,0.0162 0.0734,0.04234 0.0759,0.05803 0.003,0.01569 -0.0245,0.03327 -0.0601,0.03908 -0.0356,0.0058 -0.0698,-0.02033 -0.0759,-0.05803 z m -0.86899,0.02041 c -0.0737,-0.01503 -0.11464,-0.08418 -0.12092,-0.204035 -0.007,-0.143984 -0.036,-0.176959 -0.13887,-0.160174 -0.0986,0.01608 -0.12484,-0.01034 -0.11008,-0.110844 0.0107,-0.07256 -0.0272,-0.185163 -0.0843,-0.250137 -0.0894,-0.101883 -0.0867,-0.140103 0.0195,-0.27721 0.0968,-0.124973 0.10859,-0.209211 0.055,-0.393268 -0.0375,-0.128828 -0.0794,-0.277279 -0.0932,-0.329875 -0.017,-0.06674 -0.0355,-0.05359 -0.0596,0.04295 -0.019,0.07625 -0.0424,0.103376 -0.0519,0.06045 -0.01,-0.04294 -0.0584,-0.05431 -0.10848,-0.02506 -0.0576,0.03362 -0.0973,0.01487 -0.10802,-0.05098 -0.009,-0.05724 -0.0684,-0.09853 -0.13131,-0.0918 -0.063,0.0062 0.13691,-0.08424 0.44398,-0.20222 0.52501,-0.201678 0.56439,-0.20872 0.66007,-0.117898 0.0849,0.08049 0.10071,0.08013 0.0956,-0.0021 -0.004,-0.0542 -0.0138,-0.121898 -0.0238,-0.150134 -0.01,-0.02831 0.0352,-0.05194 0.0999,-0.05257 0.0648,-4.34e-4 0.17901,-0.04926 0.25402,-0.108102 0.16278,-0.12767 0.35255,-0.05446 0.31595,0.12206 -0.0169,0.08158 0.003,0.09494 0.0774,0.05161 0.0688,-0.04011 0.15993,-0.0013 0.29008,0.123969 0.27044,0.260077 0.56578,0.682481 0.54388,0.777871 -0.0129,0.05621 -0.0245,0.05537 -0.0376,-0.003 -0.0106,-0.0461 -0.0451,-0.06113 -0.0772,-0.03331 -0.0338,0.02933 -0.0713,-0.02961 -0.0894,-0.140583 -0.018,-0.110183 -0.0749,-0.200242 -0.13437,-0.2126 -0.0568,-0.01182 -0.10993,-0.06272 -0.11816,-0.113155 -0.008,-0.05043 -0.0956,-0.127566 -0.19415,-0.17139 -0.17725,-0.0788 -0.17887,-0.07758 -0.1479,0.112273 0.0172,0.105575 0.005,0.214705 -0.0269,0.242525 -0.0359,0.03129 -0.08,-0.08067 -0.11528,-0.293054 -0.0408,-0.245735 -0.0704,-0.313048 -0.10399,-0.236261 -0.0374,0.08554 -0.0534,0.07457 -0.0789,-0.0536 -0.0224,-0.112304 -0.0404,-0.12904 -0.0599,-0.05528 -0.0153,0.05813 -0.0719,0.11133 -0.12561,0.118264 -0.13673,0.01724 -0.24417,0.255895 -0.18037,0.399711 0.0293,0.06604 0.0274,0.124354 -0.005,0.129699 -0.0323,0.0053 -0.0638,-0.02161 -0.07,-0.0598 -0.0194,-0.119056 -0.26077,-0.263194 -0.27658,-0.165189 -0.008,0.04683 -0.0431,0.07309 -0.0789,0.05827 -0.0359,-0.01482 -0.0613,0.01102 -0.0563,0.05863 0.0129,0.122405 0.002,0.268296 -0.0289,0.407514 -0.0223,0.09948 0.008,0.11498 0.17411,0.08794 0.14808,-0.02415 0.19659,-0.06277 0.18371,-0.146302 -0.0142,-0.09161 -0.003,-0.09771 0.0551,-0.03169 0.04,0.04505 0.0631,0.127829 0.0514,0.184046 -0.0117,0.05622 0.029,0.127905 0.091,0.159205 0.0943,0.04784 0.11176,0.118686 0.10882,0.44228 -0.002,0.284795 -0.0284,0.380126 -0.099,0.365451 -0.058,-0.01202 -0.0901,0.02382 -0.0815,0.09213 0.0106,0.08388 -0.006,0.07805 -0.0677,-0.0232 -0.053,-0.08751 -0.11466,-0.115943 -0.17515,-0.08066 -0.1101,0.06426 -0.10894,0.154067 0.002,0.172016 0.0432,0.0069 0.0719,0.04562 0.0639,0.08594 -0.008,0.04032 -0.0648,0.06295 -0.12616,0.05047 z m 0.26297,-1.015103 c -0.11527,-0.05871 -0.13905,-0.04784 -0.18473,0.08485 -0.0614,0.17819 -0.0227,0.238317 0.17936,0.278529 0.1235,0.02464 0.14675,0.0028 0.14262,-0.133298 -0.003,-0.100213 -0.0558,-0.18857 -0.13723,-0.23006 z m 2.45063,0.296013 c -0.11613,-0.09264 -0.12146,-0.108655 -0.0301,-0.08962 0.0611,0.01272 0.13391,0.06195 0.16161,0.10945 0.0689,0.118196 0.035,0.113067 -0.13155,-0.01978 z m -2.03445,0.08391 c -0.0837,-0.152909 -0.0849,-0.533121 -0.001,-0.54674 0.0801,-0.01307 0.15636,0.150006 0.10475,0.224121 -0.025,0.036 -0.0415,0.154471 -0.0365,0.263348 0.009,0.186459 0.005,0.189901 -0.0668,0.05923 z m 1.41816,-0.26303 c -0.0346,-0.07663 -0.0762,-0.218577 -0.0925,-0.315426 -0.047,-0.275473 -0.42682,-0.807846 -0.76893,-1.075767 -0.3326,-0.260494 -0.3738,-0.31863 -0.24113,-0.340269 0.12369,-0.02018 0.62604,0.479279 0.83501,0.830216 0.0999,0.167872 0.22969,0.468301 0.28831,0.667623 0.10722,0.364738 0.0958,0.492467 -0.0209,0.233636 z m -33.473171,5.49213 c -0.03193,-0.0367 -0.157463,-0.0349 -0.292772,0.004 -0.164141,0.0476 -0.201187,0.0456 -0.120595,-0.006 0.08037,-0.052 0.09021,-0.0859 0.0319,-0.11007 -0.112696,-0.0466 -0.125314,-0.1533 -0.01971,-0.17053 0.166855,-0.0272 0.209651,-0.17134 0.107012,-0.3605 -0.09187,-0.16942 -0.103204,-0.17242 -0.198385,-0.0532 -0.05553,0.0695 -0.101821,0.19081 -0.102887,0.26944 -0.0018,0.12938 -0.0086,0.13275 -0.07241,0.0356 -0.04677,-0.0712 -0.03984,-0.15482 0.02077,-0.2485 0.05016,-0.0776 0.07168,-0.16373 0.04772,-0.1913 -0.02396,-0.0276 -0.02388,-0.0967 5.4e-4,-0.15386 0.03033,-0.0712 0.04862,-0.0784 0.05836,-0.023 0.0081,0.0466 0.09699,0.0673 0.209694,0.0489 0.179715,-0.0293 0.189958,-0.0458 0.126832,-0.20351 -0.153549,-0.38356 -0.172709,-0.41058 -0.217411,-0.30572 -0.03275,0.0769 -0.04663,0.0719 -0.06282,-0.0224 -0.01637,-0.0963 -0.03681,-0.10269 -0.09893,-0.0313 -0.04301,0.0494 -0.05392,0.1446 -0.02426,0.21154 0.0952,0.21464 -0.07638,0.15168 -0.192215,-0.0705 -0.09097,-0.17446 -0.097,-0.2344 -0.03317,-0.32323 0.06847,-0.0952 0.151463,-0.10667 0.65276,-0.0902 0.471994,0.0155 0.56659,0.0375 0.531058,0.12344 -0.02687,0.0651 -0.01206,0.1317 0.03931,0.17641 0.05881,0.0512 0.06162,0.0753 0.0096,0.0837 -0.03997,0.007 -0.06295,0.0713 -0.0511,0.14392 0.01788,0.10961 0.0039,0.12036 -0.08209,0.0632 -0.06489,-0.0431 -0.08174,-0.088 -0.04506,-0.12032 0.03872,-0.0341 0.02812,-0.0885 -0.03134,-0.16109 -0.0675,-0.0821 -0.08684,-0.0851 -0.07713,-0.0119 0.01112,0.0868 0.0041,0.088 -0.06573,0.0107 -0.04325,-0.0478 -0.07852,-0.072 -0.07836,-0.0537 0.0036,0.45656 0.0374,0.59581 0.167349,0.68931 0.12485,0.0898 0.135988,0.12948 0.09802,0.34874 -0.0236,0.13608 -0.02131,0.25571 0.0052,0.26584 0.02638,0.0102 0.0096,0.0152 -0.03877,0.0114 -0.04774,-0.004 -0.09978,0.0595 -0.115655,0.14085 -0.01776,0.0911 -0.05032,0.12324 -0.08476,0.0835 z m 3.966086,-0.62847 c -0.02537,-0.0182 -0.214662,-0.0194 -0.420746,-0.003 -0.474007,0.0386 -1.286187,-0.01 -1.347559,-0.0806 -0.02569,-0.0296 -0.01566,-0.0588 0.02194,-0.0649 0.0377,-0.006 0.0086,-0.0577 -0.06461,-0.11469 -0.07332,-0.0569 -0.261923,-0.26548 -0.419216,-0.46346 -0.157313,-0.19798 -0.329652,-0.35284 -0.382997,-0.34414 -0.0533,0.009 -0.08512,-7.1e-4 -0.07067,-0.0208 0.06872,-0.0955 1.795447,0.0654 1.812333,0.16887 0.0021,0.0127 -0.03241,0.0734 -0.0766,0.13479 -0.07103,0.0987 -0.05311,0.12228 0.153849,0.20288 0.229523,0.0894 0.23681,0.0883 0.364781,-0.0554 0.130443,-0.14621 0.130943,-0.14613 0.387982,0.0625 0.267642,0.21724 0.360987,0.4247 0.202708,0.45052 -0.05043,0.008 -0.09701,0.0476 -0.103454,0.0875 -0.0065,0.0399 -0.03244,0.0577 -0.05781,0.0394 z m -1.670656,-0.93088 c -0.01521,-0.0933 -0.333601,-0.15164 -0.391096,-0.0717 -0.01824,0.0255 0.02705,0.0944 0.100788,0.15326 0.142996,0.11412 0.314342,0.066 0.290287,-0.0815 z m 30.351621,-3.914369 c -0.0145,-0.08902 -0.006,-0.127871 0.0195,-0.08626 0.0252,0.04158 0.0371,0.114439 0.0264,0.16189 -0.0107,0.04744 -0.0314,0.01322 -0.0459,-0.0756 z m -34.956866,5.369369 c -0.01452,-0.089 -0.0058,-0.12786 0.01947,-0.0863 0.02522,0.0416 0.03711,0.11445 0.02641,0.1619 -0.0107,0.0474 -0.03138,0.0132 -0.04587,-0.0756 z m 1.345762,-0.32196 c -0.02675,-0.13295 -0.01719,-0.21598 0.02322,-0.1993 0.08453,0.035 0.152951,0.40598 0.07735,0.41831 -0.02981,0.005 -0.07496,-0.0937 -0.100274,-0.21906 z M 120.2685,96.936319 c 0.11577,-0.395374 0.23392,-0.555187 0.45764,-0.619015 0.18201,-0.05198 0.22654,-0.04202 0.24203,0.05293 0.0209,0.128265 -0.0783,0.176679 -0.13618,0.06639 -0.0239,-0.04556 -0.0669,-0.02708 -0.12501,0.05362 -0.0487,0.06773 -0.13434,0.130538 -0.19031,0.139668 -0.0612,0.01 -0.0926,0.07256 -0.0789,0.156904 0.0126,0.07718 8.4e-4,0.124418 -0.0261,0.104978 -0.027,-0.01941 -0.0816,0.02244 -0.12164,0.09188 -0.064,0.112044 -0.0665,0.1064 -0.0215,-0.04735 z m 2.63369,-0.534834 c -0.0106,-0.06838 0.003,-0.172823 0.0306,-0.232138 0.0364,-0.07879 0.0467,-0.05352 0.0382,0.09348 -0.0145,0.246806 -0.043,0.30453 -0.0688,0.13864 z m -2.08227,0.282596 c -0.009,-0.05557 0.0127,-0.105705 0.0483,-0.111516 0.0356,-0.0058 0.0692,0.01688 0.0747,0.05033 0.005,0.03356 -0.0162,0.08371 -0.0483,0.111517 -0.032,0.02782 -0.0656,0.0056 -0.0747,-0.05033 z m -31.960197,4.992669 c -0.03545,-0.21735 0.253837,-0.83471 0.387722,-0.82738 0.04191,0.002 0.06981,-0.036 0.06181,-0.0851 -0.02381,-0.14596 0.111128,-0.24911 0.280761,-0.21463 0.129463,0.0263 0.162625,0.08 0.203206,0.32876 0.0326,0.19986 0.02275,0.28669 -0.02995,0.26489 -0.04455,-0.0185 -0.07547,-0.11548 -0.07164,-0.22492 0.0037,-0.10586 -0.01425,-0.1886 -0.04012,-0.18382 -0.115873,0.0209 -0.175436,0.14717 -0.187425,0.3952 l -0.01292,0.26802 -0.05734,-0.20678 c -0.05064,-0.18249 -0.07076,-0.19651 -0.171803,-0.11922 -0.06341,0.0485 -0.103374,0.15551 -0.0896,0.23998 0.01653,0.10134 -0.01096,0.15517 -0.08205,0.16063 -0.06611,0.005 -0.10682,0.0702 -0.10668,0.17033 3.02e-4,0.24225 -0.04703,0.2614 -0.08413,0.034 z m 32.655717,-5.211846 c -0.006,-0.03454 0.0335,-0.0699 0.0869,-0.07861 0.0534,-0.0087 0.099,-0.0044 0.10127,0.0096 0.002,0.01402 -0.0368,0.04937 -0.0869,0.07861 -0.05,0.02924 -0.0957,0.02472 -0.10127,-0.0096 z m -32.914504,5.251786 c -0.03953,-0.22996 0.407225,-1.21055 0.56273,-1.23591 0.148981,-0.0243 0.128652,0.0581 -0.08547,0.34633 -0.108169,0.14562 -0.256592,0.42411 -0.329843,0.61888 -0.07325,0.19477 -0.139586,0.31658 -0.147417,0.2707 z m 1.164058,-0.19595 c -0.0058,-0.0356 0.01561,-0.0876 0.04766,-0.11534 0.03204,-0.0278 0.06297,-0.0214 0.06878,0.0142 0.0058,0.0356 -0.01571,0.0876 -0.04765,0.11534 -0.03204,0.0278 -0.06297,0.0214 -0.06879,-0.0142 z m 1.771691,-0.38108 c -0.0041,-0.081 -0.01097,-0.18404 -0.01537,-0.22903 -0.0043,-0.045 0.02045,-0.0864 0.0549,-0.092 0.03445,-0.006 0.05299,0.0366 0.04115,0.0939 -0.01184,0.0572 0.02218,0.14217 0.07557,0.18873 0.05338,0.0465 0.08159,0.10639 0.06233,0.13302 -0.01916,0.0266 -0.041,0.0107 -0.04847,-0.035 -0.01014,-0.0622 -0.03265,-0.0617 -0.08821,0.002 -0.05871,0.0674 -0.07616,0.0543 -0.08209,-0.0616 z m 31.197475,-5.004325 c -0.009,-0.05339 -2.9e-4,-0.159505 0.0187,-0.235725 0.0217,-0.08734 0.0404,-0.102643 0.0504,-0.04145 0.009,0.05339 2.8e-4,0.159505 -0.0187,0.235724 -0.0217,0.08734 -0.0404,0.102643 -0.0504,0.04145 z m -32.818392,5.087085 c -0.0058,-0.0356 0.02033,-0.0698 0.05803,-0.0759 0.0377,-0.006 0.05528,0.0209 0.03918,0.0601 -0.0162,0.0392 -0.04234,0.0734 -0.05803,0.0759 -0.01569,0.003 -0.03337,-0.0245 -0.03918,-0.0601 z m -0.08978,-0.55043 c -0.0087,-0.0534 0.0269,-0.10409 0.0793,-0.11264 0.05794,-0.009 0.08673,0.0249 0.07368,0.0877 -0.01172,0.0567 -0.04752,0.10745 -0.0793,0.11264 -0.03178,0.005 -0.06497,-0.0343 -0.07368,-0.0877 z m 33.478942,-7.117968 c -0.0522,-0.04549 -0.11435,-0.148234 -0.13796,-0.228399 -0.0237,-0.08013 -0.13381,-0.295462 -0.24474,-0.478472 -0.11091,-0.183012 -0.27512,-0.532952 -0.36486,-0.777647 -0.0898,-0.244681 -0.29163,-0.6737 -0.44865,-0.953358 -0.35451,-0.631376 -0.36548,-0.691271 -0.0379,-0.207614 0.22813,0.336969 0.40686,0.447205 0.46882,0.289168 0.0114,-0.02932 -0.0803,-0.495493 -0.20413,-1.035969 -0.12372,-0.540492 -0.21901,-1.053859 -0.21162,-1.140834 0.012,-0.142983 0.0344,-0.155636 0.23311,-0.132149 0.12088,0.01433 0.38026,-1.5e-5 0.57642,-0.03181 0.97588,-0.158184 2.51246,-0.03013 3.04241,0.253409 0.43554,0.233016 0.44997,0.305762 0.0739,0.372691 l -0.31219,0.05599 0.31872,0.04386 c 0.32872,0.04527 0.62683,0.250904 0.66019,0.455402 0.0104,0.06346 0.0577,0.124299 0.10513,0.135179 0.0582,0.0133 0.0408,0.07299 -0.0533,0.18269 -0.45983,0.536514 -1.31546,0.926096 -2.98639,1.359772 -0.48046,0.124673 -0.90084,0.250427 -0.93418,0.279381 -0.0399,0.03468 0.0494,0.31524 0.26242,0.824225 0.17766,0.424376 0.31558,0.781937 0.30648,0.794566 -0.009,0.01263 -0.0593,-0.01424 -0.11148,-0.05973 z m -34.762462,5.377095 c 0.02907,-0.09015 0.07357,-0.149037 0.0988,-0.130872 0.02526,0.01817 0.0014,0.09197 -0.0529,0.163905 -0.09446,0.125108 -0.09648,0.123654 -0.04592,-0.03304 z m -0.03013,-0.504611 c -0.0035,-0.145687 0.01414,-0.457444 0.03917,-0.692793 0.03245,-0.304829 0.02317,-0.431315 -0.03202,-0.439801 -0.04261,-0.0065 -0.510048,-0.0044 -1.03872,0.0048 -1.2626,0.02191 -2.012671,-0.03336 -2.428534,-0.178953 -0.34929,-0.122275 -0.732599,-0.369382 -0.605212,-0.39016 0.03958,-0.0065 0.06606,-0.105003 0.0589,-0.219099 -0.0085,-0.135787 0.04246,-0.264576 0.147713,-0.373105 0.148142,-0.152812 0.244989,-0.179501 1.240583,-0.341892 0.917317,-0.149624 1.11293,-0.199869 1.299255,-0.333831 0.258877,-0.186102 0.222917,-0.33687 -0.05899,-0.24737 -0.104894,0.03332 -0.393116,0.0474 -0.640538,0.03122 -0.247386,-0.01608 -0.562048,-0.02962 -0.699231,-0.03001 -0.137177,-4.22e-4 -0.253401,-0.02513 -0.258279,-0.05504 -0.01207,-0.07402 0.555306,-0.403629 0.950482,-0.552204 0.17749,-0.06674 0.562714,-0.181048 0.856052,-0.253961 0.293338,-0.07297 0.591565,-0.185552 0.662745,-0.250143 0.225343,-0.204656 0.300406,0.04807 0.327403,1.102311 0.03265,1.275288 0.03424,1.282496 0.272853,1.243575 0.167151,-0.02726 0.203616,-0.07131 0.256832,-0.310577 0.03416,-0.153339 0.07422,-0.270019 0.08912,-0.259288 0.01492,0.01074 -0.01389,0.218597 -0.06382,0.461909 -0.04998,0.243319 -0.11769,0.740048 -0.150385,1.103826 -0.03266,0.363773 -0.09537,0.792824 -0.13928,0.953437 l -0.07982,0.292009 z M 103.59247,82.770528 c -0.0634,-0.388535 -0.0797,-0.651796 -0.0409,-0.658123 0.0389,-0.0063 0.107,0.248467 0.17037,0.637002 0.0634,0.388546 0.0797,0.651806 0.0409,0.658133 -0.0389,0.0063 -0.10699,-0.248467 -0.17037,-0.637012 z"
       id="path940"
       inkscape:connector-curvature="0" />
    <path
       style="fill:#000000;stroke-width:1"
       d=""
       id="path936"
       inkscape:connector-curvature="0" />
    <path
       style="fill:#000000;stroke-width:1"
       d=""
       id="path934"
       inkscape:connector-curvature="0" />
  </g>
</svg>
